# xmcd
#
# Track frame offsets: 
#        150
#        27384
#        44866
#        59339
#        72753
#        100141
#        112398
#        127045
#        143057
#        159055
#        178877
#        198588
#        219952
#        232112
#        250068
#        270817
#
# Disc length: 3805 seconds
#
# Revision: 0
# Processed by: cddbd v1.5.2PL0 Copyright (c) Steve Scherf et al.
# Submitted via: ExactAudioCopy v1.3
#
DISCID=ee0edb10
DTITLE=Whiskeydick - 100% Drunk Live Album - It Happens EP
DYEAR=2014
DGENRE=Heavy Metal Honky Tonk
TTITLE0=First Love
TTITLE1=Blind Fool
TTITLE2=Drinkin' Whiskey Free
TTITLE3=First Class White Trash
TTITLE4=Folsom Prison Metal Blues
TTITLE5=Front Yard BBQ
TTITLE6=Jim Beam and Me
TTITLE7=Me and the Devil
TTITLE8=Rebel Flags and Whiskey
TTITLE9=River of Sin
TTITLE10=WhiskeyDick
TTITLE11=Wookie Pussy
TTITLE12=Hate and Whiskey (Original Version)
TTITLE13=Molly Loves Her Electric Sex
TTITLE14=Blind Fool (Feat. Adam Lottes)
TTITLE15=A Whiskey Dave (Feat. Dave Greene)
EXTD=
EXTT0=
EXTT1=
EXTT2=
EXTT3=
EXTT4=
EXTT5=
EXTT6=
EXTT7=
EXTT8=
EXTT9=
EXTT10=
EXTT11=
EXTT12=
EXTT13=
EXTT14=
EXTT15=
PLAYORDER=
